ik trial
nRows=4
nColumns=135

# SIMM Motion File Header:
name ik trial
datacolumns 135
datarows 4
otherdata 1
range 1.41666700 1.44166700
endheader
time	pelvis_tx	pelvis_ty	pelvis_tz	pelvis_tilt	pelvis_list	pelvis_rotation	hip_flexion_r	hip_adduction_r	hip_rotation_r	knee_angle_r	ankle_angle_r	hip_flexion_l	hip_adduction_l	hip_rotation_l	knee_angle_l	ankle_angle_l	lumbar_extension	lumbar_bending	lumbar_rotation	subtalar_angle_r	mtp_angle_r	subtalar_angle_l	mtp_angle_l	RASI_tx	RASI_ty	RASI_tz	LASI_tx	LASI_ty	LASI_tz	SACR_tx	SACR_ty	SACR_tz	RTH1_tx	RTH1_ty	RTH1_tz	RTH2_tx	RTH2_ty	RTH2_tz	RTH3_tx	RTH3_ty	RTH3_tz	RTB1_tx	RTB1_ty	RTB1_tz	RTB2_tx	RTB2_ty	RTB2_tz	RTB3_tx	RTB3_ty	RTB3_tz	RCAL_tx	RCAL_ty	RCAL_tz	RTOE_tx	RTOE_ty	RTOE_tz	RMT5_tx	RMT5_ty	RMT5_tz	LTH1_tx	LTH1_ty	LTH1_tz	LTH2_tx	LTH2_ty	LTH2_tz	LTH3_tx	LTH3_ty	LTH3_tz	LTB1_tx	LTB1_ty	LTB1_tz	LTB2_tx	LTB2_ty	LTB2_tz	LTB3_tx	LTB3_ty	LTB3_tz	LCAL_tx	LCAL_ty	LCAL_tz	LTOE_tx	LTOE_ty	LTOE_tz	LMT5_tx	LMT5_ty	LMT5_tz	LPSI_tx	LPSI_ty	LPSI_tz	RPSI_tx	RPSI_ty	RPSI_tz	RACR_tx	RACR_ty	RACR_tz	LACR_tx	LACR_ty	LACR_tz	RElbow_tx	RElbow_ty	RElbow_tz	LElbow_tx	LElbow_ty	LElbow_tz	RWrist_tx	RWrist_ty	RWrist_tz	LWrist_tx	LWrist_ty	LWrist_tz	C7_tx	C7_ty	C7_tz	CLAV_tx	CLAV_ty	CLAV_tz	ground_force_vx	ground_force_vy	ground_force_vz	ground_force_px	ground_force_py	ground_force_pz	ground_torque_x	ground_torque_y	ground_torque_z	ground_force_vx	ground_force_vy	ground_force_vz	ground_force_px	ground_force_py	ground_force_pz	ground_torque_x	ground_torque_y	ground_torque_z
      1.41666700	      0.52571250	      0.99169896	     -0.26391095	     16.83465108	     -5.13200296	     -7.85195968	    -39.90906120	     -0.81627123	     11.47999814	     -3.59434146	      4.76536946	      2.90486310	    -10.27786843	     -0.51798535	      9.93660116	     -0.26800774	    -26.99264881	      2.02025548	     11.50493525	      0.00000000	      0.00000000	      0.00000000	      0.00000000	      0.53422796	      1.01424055	     -0.14668804	      0.55702929	      1.00527558	     -0.37231217	      0.36260511	      1.03169980	     -0.28542859	      0.43687280	      0.84013357	     -0.08691302	      0.35670926	      0.59933651	     -0.10728746	      0.47322714	      0.71245557	     -0.13184528	      0.28576679	      0.42630491	     -0.11137011	      0.13869247	      0.19319670	     -0.15044312	      0.21914216	      0.27807248	     -0.14464068	      0.02113784	      0.11831739	     -0.19753807	      0.23156258	      0.06395106	     -0.22369737	      0.18499350	      0.04114366	     -0.13857817	      0.55359911	      0.82134016	     -0.45977271	      0.62680816	      0.61546616	     -0.46214277	      0.63793440	      0.75480998	     -0.42682300	      0.71702578	      0.44096533	     -0.46652105	      0.82764023	      0.20206051	     -0.43489861	      0.78717774	      0.35432124	     -0.44156979	      0.82929189	      0.07412518	     -0.37968197	      1.00425283	      0.20502227	     -0.38989019	      0.97536558	      0.12585448	     -0.45407482	      0.36794892	      1.03420596	     -0.33363149	      0.35726129	      1.02919366	     -0.23722569	      0.46681762	      1.47565699	     -0.10354225	      0.45130886	      1.48270732	     -0.44886077	      0.55750519	      1.13496685	      0.01651832	      0.27029177	      1.18236661	     -0.52361977	      0.80118245	      1.03254355	     -0.04489742	      0.15161637	      0.95712743	     -0.59814510	      0.38201036	      1.50567325	     -0.27538981	      0.54152447	      1.41721743	     -0.27517117	    134.86672500	    874.87072200	    -28.66523000	      0.23294400	     -0.00600000	     -0.20948100	      0.00000000	      0.38308200	      0.00000000	      0.00000000	      0.00000000	      0.00000000	      0.00000000	      0.00000000	      0.00000000	      0.00000000	      0.00000000	      0.00000000
      1.42500000	      0.54120182	      0.99008001	     -0.26431182	     17.00801024	     -4.84096739	     -8.44244522	    -40.43454981	     -1.59086078	     11.43357967	     -4.45935768	      4.29578225	      3.03185435	     -9.89605938	     -0.77669568	      8.81258538	      0.06814686	    -27.09215329	      1.32899345	     11.94024982	      0.00000000	      0.00000000	      0.00000000	      0.00000000	      0.54894300	      1.01174562	     -0.14731411	      0.57281181	      1.00362040	     -0.37293615	      0.37795144	      1.02935214	     -0.28673352	      0.45033918	      0.83790055	     -0.08844052	      0.36912025	      0.59757807	     -0.10856466	      0.48632157	      0.70999100	     -0.13264314	      0.29583690	      0.42541103	     -0.11239200	      0.14327289	      0.19572525	     -0.15054893	      0.22589165	      0.27884732	     -0.14486593	      0.02408624	      0.12359548	     -0.19717863	      0.23266384	      0.06354192	     -0.22359513	      0.18572475	      0.04164612	     -0.13855036	      0.57184164	      0.82128749	     -0.46017648	      0.64555729	      0.61525947	     -0.46215352	      0.65683981	      0.75598066	     -0.42734495	      0.73607678	      0.43986371	     -0.46563868	      0.84264288	      0.19937490	     -0.43524012	      0.80438474	      0.35182547	     -0.44056800	      0.84083467	      0.07083457	     -0.37836692	      1.01776948	      0.19917544	     -0.39138643	      0.98688314	      0.12218345	     -0.45536081	      0.38353973	      1.03207670	     -0.33485212	      0.37236314	      1.02662760	     -0.23861493	      0.48231395	      1.47381866	     -0.10565030	      0.46640999	      1.48004063	     -0.45097458	      0.57273396	      1.13334049	      0.01504925	      0.28297890	      1.18149848	     -0.52537983	      0.81654559	      1.03238035	     -0.04728761	      0.16137865	      0.95790248	     -0.60011312	      0.39724013	      1.50348206	     -0.27746509	      0.55683106	      1.41471059	     -0.27715003	    151.62972800	    885.02512000	    -28.62409000	      0.23546400	     -0.00600000	     -0.21030300	      0.00000000	      0.12704900	      0.00000000	      0.00000000	      0.00000000	      0.00000000	      0.00000000	      0.00000000	      0.00000000	      0.00000000	      0.00000000	      0.00000000
      1.43333300	      0.55669904	      0.98847248	     -0.26494387	     17.01935966	     -4.52445512	     -8.84320771	    -40.69724382	     -2.21097153	     11.30175558	     -5.48557826	      3.71709507	      3.80992689	     -9.43354110	     -1.29396942	      6.56176850	      0.86699389	    -27.00535954	      0.70784528	     12.21529262	      0.00000000	      0.00000000	      0.00000000	      0.00000000	      0.56411664	      1.00951011	     -0.14808925	      0.58879499	      1.00234700	     -0.37373441	      0.39360392	      1.02734627	     -0.28796852	      0.46431183	      0.83574455	     -0.09010567	      0.38217950	      0.59583625	     -0.11001704	      0.49997330	      0.70766203	     -0.13368629	      0.30659550	      0.42460278	     -0.11355189	      0.14838366	      0.19863923	     -0.15081056	      0.23314456	      0.27979531	     -0.14530033	      0.02761063	      0.12958559	     -0.19702725	      0.23390352	      0.06310841	     -0.22353320	      0.18659452	      0.04235585	     -0.13854449	      0.58999869	      0.82093475	     -0.46027148	      0.66433257	      0.61492226	     -0.46194399	      0.67563001	      0.75641029	     -0.42843996	      0.75528722	      0.43863747	     -0.46421218	      0.85603395	      0.19643749	     -0.43592067	      0.82087142	      0.34868862	     -0.43904706	      0.84971084	      0.06671200	     -0.37697505	      1.02928465	      0.19137495	     -0.39275166	      0.99697453	      0.11798357	     -0.45713787	      0.39938914	      1.03035392	     -0.33599587	      0.38781870	      1.02433864	     -0.23994119	      0.49788907	      1.47220776	     -0.10785002	      0.48144728	      1.47760294	     -0.45311383	      0.58748849	      1.13181638	      0.01349695	      0.29611653	      1.18056456	     -0.52715912	      0.83132030	      1.03172921	     -0.04949220	      0.17200991	      0.95843560	     -0.60205287	      0.41247067	      1.50144099	     -0.27953388	      0.57219154	      1.41255191	     -0.27922724	    168.36916800	    886.26204600	    -27.37771400	      0.23683100	     -0.00600000	     -0.21076100	      0.00000000	      0.02393000	      0.00000000	      0.00000000	      0.00000000	      0.00000000	      0.00000000	      0.00000000	      0.00000000	      0.00000000	      0.00000000	      0.00000000
      1.44166700	      0.57249541	      0.98691596	     -0.26572963	     17.02313626	     -4.23379960	     -9.16533048	    -40.88963022	     -2.74033401	     11.13803611	     -6.64492348	      3.00271132	      4.59085528	     -8.97158876	     -1.79751071	      4.09063915	      1.63670734	    -26.86846090	      0.15176303	     12.44794024	      0.00000000	      0.00000000	      0.00000000	      0.00000000	      0.57973819	      1.00747267	     -0.14897111	      0.60506381	      1.00135422	     -0.37466131	      0.40961139	      1.02566215	     -0.28918115	      0.47883488	      0.83365389	     -0.09187126	      0.39600317	      0.59406445	     -0.11159462	      0.51424968	      0.70546971	     -0.13490318	      0.31811376	      0.42385373	     -0.11479701	      0.15411656	      0.20195454	     -0.15123222	      0.24094747	      0.28087778	     -0.14594202	      0.03183795	      0.13632844	     -0.19716319	      0.23526501	      0.06265266	     -0.22354260	      0.18764582	      0.04331486	     -0.13856333	      0.60792657	      0.82014319	     -0.46034094	      0.68329299	      0.61445942	     -0.46130564	      0.69423573	      0.75609706	     -0.42994342	      0.77426081	      0.43712610	     -0.46242070	      0.86768172	      0.19320439	     -0.43660432	      0.83644089	      0.34497145	     -0.43718275	      0.85643489	      0.06227744	     -0.37557175	      1.03909775	      0.18217677	     -0.39361838	      1.00594636	      0.11311964	     -0.45895759	      0.41556288	      1.02897515	     -0.33712719	      0.40365989	      1.02234917	     -0.24123513	      0.51346932	      1.47080890	     -0.11015824	      0.49643364	      1.47540046	     -0.45529170	      0.60176008	      1.13039271	      0.01186024	      0.30968355	      1.17957840	     -0.52894234	      0.84551991	      1.03059740	     -0.05149839	      0.18352004	      0.95871356	     -0.60394231	      0.42767199	      1.49952331	     -0.28163481	      0.58761289	      1.41075364	     -0.28141066	    184.38310100	    877.06966000	    -24.82688900	      0.23919500	     -0.00600000	     -0.21182100	      0.00000000	      0.09807800	      0.00000000	      0.00000000	      0.00000000	      0.00000000	      0.00000000	      0.00000000	      0.00000000	      0.00000000	      0.00000000	      0.00000000
